Coordinates
version=1
nRows=14
nColumns=40
inDegrees=yes

Units are S.I. units (second, meters, Newtons, ...)
If the header above contains a line with 'inDegrees', this indicates whether rotational values are in degrees (yes) or radians (no).

endheader
time	pelvis_tilt	pelvis_list	pelvis_rotation	pelvis_tx	pelvis_ty	pelvis_tz	hip_flexion_r	hip_adduction_r	hip_rotation_r	knee_angle_r	knee_angle_r_beta	ankle_angle_r	subtalar_angle_r	mtp_angle_r	hip_flexion_l	hip_adduction_l	hip_rotation_l	knee_angle_l	knee_angle_l_beta	ankle_angle_l	subtalar_angle_l	mtp_angle_l	lumbar_extension	lumbar_bending	lumbar_rotation	arm_flex_r	arm_add_r	arm_rot_r	elbow_flex_r	pro_sup_r	wrist_flex_r	wrist_dev_r	arm_flex_l	arm_add_l	arm_rot_l	elbow_flex_l	pro_sup_l	wrist_flex_l	wrist_dev_l
      9.72500000	    -22.08020028	    -35.93794116	     89.99035931	      0.40909205	      0.83389655	     -0.68096719	     67.54441608	     12.07771217	     39.97627554	     48.90860343	      0.85361616	    -14.64274484	      0.00000000	      0.00000000	     17.03527997	     19.26240235	    -39.98311770	      0.01992811	      0.00034781	     11.02175809	      0.00000000	      0.00000000	     46.85100725	    -59.04286423	     89.75898322	     29.96260322	      7.17017432	      4.09061761	     18.69781437	     39.32909622	      0.00000000	      0.00000000	     12.13285240	    -31.36839650	     23.31853169	     44.21757918	     50.23970739	      0.00000000	      0.00000000
      9.73000000	    -21.99573379	    -35.93136880	     89.99036896	      0.40991085	      0.83380205	     -0.68088121	     67.51551956	     12.19595255	     39.97622363	     48.83647688	      0.85235732	    -14.62450472	      0.00000000	      0.00000000	     17.04541153	     19.13190749	    -39.98313604	      0.01991141	      0.00034752	     11.05124650	      0.00000000	      0.00000000	     46.89050090	    -59.28183151	     89.76098237	     29.90717820	      7.14545194	      4.08544634	     19.16577957	     39.40432845	      0.00000000	      0.00000000	     12.19211776	    -31.41198180	     23.15313659	     44.35252576	     50.17796405	      0.00000000	      0.00000000
      9.73500000	    -21.82554333	    -35.90385136	     89.99037542	      0.41096696	      0.83376275	     -0.68083442	     67.45280418	     12.40997285	     39.97615827	     48.73464521	      0.85058002	    -14.55464905	      0.00000000	      0.00000000	     17.04017601	     18.90184709	    -39.98316648	      0.01992209	      0.00034771	     11.09850786	      0.00000000	      0.00000000	     46.86704205	    -59.46611171	     89.76079307	     29.85440969	      7.10079441	      4.07663666	     19.67570336	     39.48058600	      0.00000000	      0.00000000	     12.29841427	    -31.45538354	     22.96233893	     44.55831971	     50.11092455	      0.00000000	      0.00000000
      9.74000000	    -21.82978748	    -35.87953302	     89.99039009	      0.41166449	      0.83362888	     -0.68077788	     67.43692487	     12.45235662	     39.97611643	     48.73186450	      0.85053149	    -14.65421384	      0.00000000	      0.00000000	     17.01456050	     18.86407483	    -39.98317270	      0.01991472	      0.00034758	     11.11167444	      0.00000000	      0.00000000	     46.91578777	    -59.78241467	     89.76386782	     29.82462155	      7.08887466	      4.07464992	     20.01702584	     39.54675866	      0.00000000	      0.00000000	     12.33189794	    -31.50748963	     22.83983622	     44.61813055	     50.04854571	      0.00000000	      0.00000000
      9.74500000	    -21.80725195	    -35.84853519	     89.99039726	      0.41246179	      0.83353646	     -0.68070399	     67.39750515	     12.51995209	     39.97605481	     48.69754064	      0.84993242	    -14.71335253	      0.00000000	      0.00000000	     16.99440672	     18.79215708	    -39.98318003	      0.01991907	      0.00034765	     11.07608889	      0.00000000	      0.00000000	     46.94282711	    -60.06765593	     89.76529965	     29.97227076	      7.14408359	      4.08680976	     20.16873236	     39.59721133	      0.00000000	      0.00000000	     12.45109905	    -31.54943749	     22.77424082	     44.66124910	     50.00975499	      0.00000000	      0.00000000
      9.75000000	    -21.63023411	    -35.72998117	     89.99041570	      0.41355604	      0.83352249	     -0.68076272	     67.23749133	     12.74181106	     39.97596390	     48.60868263	      0.84838156	    -14.66197716	      0.00000000	      0.00000000	     16.88886392	     18.54593795	    -39.98319153	      0.01995021	      0.00034820	     11.15510417	      0.00000000	      0.00000000	     46.84581600	    -60.16513763	     89.77042899	     32.01097063	      7.68033397	      4.18101767	     16.71994574	     39.33421544	      0.00000000	      0.00000000	     12.92728847	    -31.73249661	     23.52099125	     44.32449380	     50.44296123	      0.00000000	      0.00000000
      9.75500000	    -21.53089995	    -35.76385684	     89.99041764	      0.41434828	      0.83329693	     -0.68062591	     67.25603057	     12.88672634	     39.97593325	     48.54322139	      0.84723904	    -14.69167297	      0.00000000	      0.00000000	     16.94617370	     18.39640213	    -39.98320530	      0.01998117	      0.00034874	     11.15922609	      0.00000000	      0.00000000	     46.89978899	    -60.39674045	     89.76974388	     31.82866739	      7.57277225	      4.15988816	     17.40426542	     39.41816445	      0.00000000	      0.00000000	     12.92310189	    -31.78443588	     23.24782266	     44.63551671	     50.38153626	      0.00000000	      0.00000000
      9.76000000	    -21.48059925	    -35.73349543	     89.99041596	      0.41529400	      0.83314092	     -0.68063636	     67.22334591	     12.99749170	     39.97583527	     48.52595430	      0.84693768	    -14.78666152	      0.00000000	      0.00000000	     16.91798656	     18.27884109	    -39.98321034	      0.01998337	      0.00034878	     11.14201736	      0.00000000	      0.00000000	     46.95048966	    -60.67105609	     89.76868597	     31.72158376	      7.57792861	      4.15837668	     18.00629647	     39.49817112	      0.00000000	      0.00000000	     12.93306654	    -31.90117656	     23.03586483	     44.84251916	     50.32758346	      0.00000000	      0.00000000
      9.76500000	    -21.41569395	    -35.73190519	     89.99041832	      0.41617031	      0.83294685	     -0.68055868	     67.21040483	     13.10956665	     39.97577587	     48.47173310	      0.84599134	    -14.81960932	      0.00000000	      0.00000000	     16.92883770	     18.15451060	    -39.98321693	      0.01999738	      0.00034902	     11.15434361	      0.00000000	      0.00000000	     46.99242008	    -60.93623699	     89.76893957	     31.61871569	      7.52915114	      4.14816064	     18.58481815	     39.57854139	      0.00000000	      0.00000000	     12.95323651	    -32.00041187	     22.89703354	     44.93873950	     50.25844688	      0.00000000	      0.00000000
      9.77000000	    -21.32912949	    -35.71490950	     89.99041557	      0.41707568	      0.83272584	     -0.68055094	     67.18894961	     13.25341397	     39.97568404	     48.44036680	      0.84544389	    -14.88771711	      0.00000000	      0.00000000	     16.91950252	     18.00310030	    -39.98322197	      0.02002050	      0.00034942	     11.17766230	      0.00000000	      0.00000000	     47.01667418	    -61.15521730	     89.76980451	     31.61442497	      7.53277085	      4.14807734	     18.96947653	     39.64013085	      0.00000000	      0.00000000	     13.10558962	    -32.08166055	     22.82189816	     45.16642241	     50.22327887	      0.00000000	      0.00000000
      9.77500000	    -21.27026417	    -35.68685901	     89.99042158	      0.41795435	      0.83255570	     -0.68049163	     67.16908226	     13.36834900	     39.97562853	     48.42089799	      0.84510410	    -14.98548854	      0.00000000	      0.00000000	     16.90271080	     17.88868664	    -39.98322480	      0.02004605	      0.00034987	     11.17420442	      0.00000000	      0.00000000	     47.02668478	    -61.39870764	     89.77117433	     31.69685458	      7.54426523	      4.14964833	     19.25531902	     39.69328924	      0.00000000	      0.00000000	     13.20422208	    -32.17040874	     22.81864403	     45.26069810	     50.19029082	      0.00000000	      0.00000000
      9.78000000	    -21.12371791	    -35.68359847	     89.99041919	      0.41895443	      0.83232087	     -0.68052433	     67.14257359	     13.56670049	     39.97553548	     48.35467120	      0.84394822	    -14.92702093	      0.00000000	      0.00000000	     16.90984164	     17.66971485	    -39.98323905	      0.02005959	      0.00035011	     11.19629143	      0.00000000	      0.00000000	     47.11457533	    -61.51265628	     89.77206170	     33.87255351	      8.17085818	      4.24802554	     15.53957731	     39.30775231	      0.00000000	      0.00000000	     13.40588076	    -32.57906399	     23.37361987	     45.37678119	     51.19404790	      0.00000000	      0.00000000
      9.78500000	    -21.00602651	    -35.63396075	     89.99042571	      0.41994918	      0.83212657	     -0.68052796	     67.09343721	     13.74327720	     39.97546458	     48.32552363	      0.84343950	    -14.94597541	      0.00000000	      0.00000000	     16.86941409	     17.48898165	    -39.98325135	      0.02008226	      0.00035050	     11.24585028	      0.00000000	      0.00000000	     47.07871527	    -61.71203606	     89.77250116	     33.65821927	      8.05875393	      4.22489053	     16.35884272	     39.39702795	      0.00000000	      0.00000000	     13.49549383	    -32.61628189	     23.19424261	     45.54986259	     51.10611559	      0.00000000	      0.00000000
      9.79000000	    -20.96585540	    -35.61261872	     89.99042662	      0.42070957	      0.83190422	     -0.68051614	     67.08204838	     13.83912569	     39.97539905	     48.33182347	      0.84354945	    -14.96821687	      0.00000000	      0.00000000	     16.84466517	     17.39608828	    -39.98325793	      0.02007293	      0.00035034	     11.26211301	      0.00000000	      0.00000000	     47.13330875	    -61.93180700	     89.77474691	     33.77655818	      8.12531509	      4.23755280	     16.42116563	     39.40135707	      0.00000000	      0.00000000	     13.58884669	    -32.67468641	     23.15081391	     45.55434814	     51.10903172	      0.00000000	      0.00000000
